<svg width="128" height="128" viewBox="0 0 128 128" fill="none" xmlns="http://www.w3.org/2000/svg">
<rect width="128" height="128" fill="#181818"/>
<path d="M56.1871 48.6203C56.1871 50.2231 54.8835 51.5223 53.2754 51.5223C51.6674 51.5223 50.3638 50.2231 50.3638 48.6203C50.3638 47.0176 51.6674 45.7183 53.2754 45.7183C54.8835 45.7183 56.1871 47.0176 56.1871 48.6203Z" fill="url(#paint0_linear_324_99)"/>
<path d="M46.7576 60.7586C48.355 60.7586 49.6499 59.4506 49.6499 57.8371C49.6499 56.2236 48.355 54.9156 46.7576 54.9156C45.1603 54.9156 43.8654 56.2236 43.8654 57.8371C43.8654 59.4506 45.1603 60.7586 46.7576 60.7586Z" fill="url(#paint1_linear_324_99)"/>
<path fill-rule="evenodd" clip-rule="evenodd" d="M85.3627 73.7616C89.6735 71.3399 92.9096 66.8087 93 61.6513C93 46.5425 80.17 31.9682 64 32.0001C48.8293 32.03 35 46.48 35 61.5142C35 66.7299 38.2825 71.3164 42.6388 73.7591C42.6039 74.0034 42.5997 74.2568 42.6299 74.5148L44.8481 93.43C45.0199 94.8955 46.258 96 47.7289 96H80.2346C81.7034 96 82.9403 94.8987 83.1148 93.4357L85.3705 74.5205C85.4014 74.2614 85.3975 74.007 85.3627 73.7616ZM57.816 71.2656H49.5C44.3888 71.2656 39.35 66.6008 39.35 61.515C39.35 55.3212 42.2248 49.0024 46.9224 44.1803C51.617 39.3613 57.7989 36.3759 64.0086 36.3637L64.0105 36.3637C61.8676 37.3505 59.8134 40.6304 60.7444 42.9398C61.398 44.5374 62.5497 46.5572 63.817 48.7799C69.1176 58.0764 76.4417 70.9217 57.816 71.2656ZM78.9858 91.9338H66.4741V84.2288C66.4741 83.0239 65.4354 82.047 64.1541 82.047C62.8728 82.047 61.8341 83.0239 61.8341 84.2288V91.9338H57.3623L56.7582 84.0576C56.6658 82.8523 55.6167 81.9504 54.415 82.0431C53.2133 82.1358 52.3141 83.1881 52.4065 84.3933L52.9848 91.9338H49.0569L47.18 75.9287H80.8945L78.9858 91.9338Z" fill="url(#paint2_linear_324_99)"/>
<defs>
<linearGradient id="paint0_linear_324_99" x1="35" y1="32" x2="98.6395" y2="89.1963" gradientUnits="userSpaceOnUse">
<stop stop-color="#FCB665"/>
<stop offset="1" stop-color="#E0517A"/>
</linearGradient>
<linearGradient id="paint1_linear_324_99" x1="35" y1="32" x2="98.6395" y2="89.1963" gradientUnits="userSpaceOnUse">
<stop stop-color="#FCB665"/>
<stop offset="1" stop-color="#E0517A"/>
</linearGradient>
<linearGradient id="paint2_linear_324_99" x1="35" y1="32" x2="98.6395" y2="89.1963" gradientUnits="userSpaceOnUse">
<stop stop-color="#FCB665"/>
<stop offset="1" stop-color="#E0517A"/>
</linearGradient>
</defs>
</svg>
