<svg width="129" height="128" viewBox="0 0 129 128" fill="none" xmlns="http://www.w3.org/2000/svg">
<rect width="128" height="128" transform="translate(0.5)" fill="#151E26"/>
<path fill-rule="evenodd" clip-rule="evenodd" d="M95.3706 63.3703V63.2303C95.3706 54.9751 92.0825 47.2795 86.1359 41.5428C82.1848 37.7312 77.3998 35.1549 72.2118 33.9372C70.3206 33.4791 68.3858 33.2115 66.4073 33.1477C66.0215 33.1346 65.6367 33.1286 65.2529 33.1295C64.8692 33.1286 64.4844 33.1346 64.0986 33.1477C62.1201 33.2115 60.1853 33.4791 58.2941 33.9372C53.1061 35.1549 48.3211 37.7312 44.37 41.5428C43.2746 42.5995 41.9151 44.0804 40.9523 45.3136C40.874 45.39 40.8004 45.4729 40.7321 45.5617C37.5139 50.0391 35.625 55.356 35.2052 60.8129C35.1353 61.5824 35.1353 62.422 35.1353 63.1915C35.1353 63.1959 35.1353 63.2003 35.1353 63.2047C35.1353 63.2133 35.1353 63.2218 35.1353 63.2303V63.3703C35.3752 78.2999 50.913 78.2291 62.4919 78.1764H62.4922C63.1644 78.1733 63.8233 78.1703 64.465 78.1703C65.0923 78.1703 65.7404 78.1731 66.4052 78.176C69.5394 78.1896 73.0471 78.2048 76.5101 77.9352C76.7085 78.198 76.8161 78.5292 76.7943 78.8841C76.6029 81.9989 75.942 86.667 74.9115 90.446C74.5161 91.896 73.1989 92.8651 71.6978 92.9403C70.5561 92.9975 69.3479 93.051 68.8647 93.0485C68.1294 93.0446 67.3167 92.3237 67.3167 91.3879V84.9078C67.3167 83.7185 66.4073 82.809 65.2179 82.809C64.0286 82.809 63.1192 83.7185 63.1192 84.9078V91.3879C63.1192 93.1334 61.6294 93.0882 60.2883 93.0151C60.1658 93.0085 60.0412 93.0034 59.916 92.9982C58.7317 92.9498 57.4905 92.899 57.3964 91.488L56.8229 84.3912C56.753 83.2019 55.7036 82.3624 54.5842 82.4324C53.3949 82.5023 52.5554 83.4818 52.6253 84.6711L53.1668 90.5347C53.2564 91.583 52.8659 92.4693 50.9882 92.1941C49.8259 92.0238 49.0884 91.889 48.8295 90.8345L46.8787 81.3172C46.6529 80.1295 45.6194 79.3583 44.5 79.4982C43.3107 79.6381 42.5412 80.7575 42.6811 81.8768C43.031 84.001 43.8816 88.6293 44.4924 91.9195C44.9097 94.1674 46.5699 95.9635 48.8234 96.3497C52.1568 96.921 57.7109 97.6037 65.2179 97.6037C72.0438 97.6037 77.3125 97.0393 80.762 96.5074C83.6533 96.0616 85.7772 93.746 86.2643 90.8614C87.1021 85.9005 88.3529 78.4564 88.7679 75.7904C88.818 75.4321 88.8642 75.0991 88.9067 74.7899C92.6983 72.6312 95.2681 69.1091 95.3706 63.3703ZM52.3426 71.1085C75.9209 70.2642 69.2154 57.5674 62.8801 45.5718C62.4099 44.6815 61.9418 43.7951 61.4882 42.9177C60.6699 41.3347 60.6454 39.1742 61.253 37.5733C58.4473 38.0209 55.6143 38.9331 53.1937 40.2207C51.0695 41.3437 49.0909 42.7718 47.3083 44.4811C46.0391 45.6982 44.881 47.0232 43.8571 48.4359C41.2405 52.1919 39.6699 56.5844 39.3329 61.1C39.2714 61.7151 39.2981 62.3251 39.323 62.8911C39.3264 62.9688 39.3298 63.0456 39.3329 63.1216C39.5671 68.8503 44.0202 71.1392 49.7569 71.1392L52.3426 71.1085ZM56.8228 53.8189C58.3683 53.8189 59.6212 52.566 59.6212 51.0205C59.6212 49.475 58.3683 48.2221 56.8228 48.2221C55.2773 48.2221 54.0244 49.475 54.0244 51.0205C54.0244 52.566 55.2773 53.8189 56.8228 53.8189ZM46.4355 62.2141C47.981 62.2141 49.2339 60.9612 49.2339 59.4157C49.2339 57.8702 47.981 56.6174 46.4355 56.6174C44.89 56.6174 43.6371 57.8702 43.6371 59.4157C43.6371 60.9612 44.89 62.2141 46.4355 62.2141Z" fill="url(#paint0_linear_544_75)"/>
<defs>
<linearGradient id="paint0_linear_544_75" x1="35.1353" y1="33.1294" x2="95.8803" y2="97.1197" gradientUnits="userSpaceOnUse">
<stop stop-color="#FFB54D"/>
<stop offset="0.588542" stop-color="#FF6933"/>
<stop offset="1" stop-color="#FA3E4E"/>
</linearGradient>
</defs>
</svg>
