<svg width="128" height="128" viewBox="0 0 128 128" fill="none" xmlns="http://www.w3.org/2000/svg">
<path d="M48.6435 33.7213C48.6435 36.8767 46.0813 39.4346 42.9206 39.4346C39.76 39.4346 37.1978 36.8767 37.1978 33.7213C37.1978 30.5659 39.76 28.008 42.9206 28.008C46.0813 28.008 48.6435 30.5659 48.6435 33.7213Z" fill="white"/>
<path d="M30.1098 57.6185C33.2494 57.6185 35.7946 55.0434 35.7946 51.8668C35.7946 48.6903 33.2494 46.1152 30.1098 46.1152C26.9702 46.1152 24.4251 48.6903 24.4251 51.8668C24.4251 55.0434 26.9702 57.6185 30.1098 57.6185Z" fill="white"/>
<path fill-rule="evenodd" clip-rule="evenodd" d="M105.989 83.2181C114.462 78.4504 120.822 69.5296 121 59.3761C121 29.6305 95.7824 0.937317 64 1.0001C34.1817 1.05901 7 29.5074 7 59.106C7 69.3744 13.4518 78.4043 22.0141 83.2132C21.9456 83.6943 21.9373 84.1931 21.9967 84.7011L26.3566 121.94C26.6944 124.826 29.1278 127 32.0188 127H95.9095C98.7963 127 101.227 124.832 101.57 121.951L106.004 84.7122C106.065 84.2021 106.057 83.7012 105.989 83.2181ZM51.8452 78.3042H35.5C25.4539 78.3042 15.55 69.1204 15.55 59.1078C15.55 46.9137 21.2005 34.4734 30.4337 24.9799C39.661 15.4926 51.8116 9.61511 64.0168 9.591L64.0207 9.59099C59.8087 11.5337 55.7712 17.991 57.601 22.5378C58.8858 25.6831 61.1494 29.6595 63.6402 34.0354C74.0587 52.3379 88.4543 77.6271 51.8452 78.3042ZM93.4549 118.995H68.8628V103.826C68.8628 101.453 66.8212 99.5301 64.3028 99.5301C61.7844 99.5301 59.7428 101.453 59.7428 103.826V118.995H50.9535L49.7662 103.488C49.5845 101.115 47.5225 99.3398 45.1606 99.5224C42.7986 99.7049 41.0312 101.776 41.2128 104.149L42.3495 118.995H34.6291L30.94 87.4846H97.2065L93.4549 118.995Z" fill="white"/>
</svg>
