<svg width="47px" height="47px" viewBox="0 0 47 47" version="1.1" xmlns="http://www.w3.org/2000/svg">
<style>
@media (prefers-color-scheme: dark) {
    path { filter: invert(100%); }
}
</style>
<g stroke="none" fill="none" fill-rule="evenodd" transform="translate(3, 2)">
<path d="M9.8573,39.8655 L2.26724103,17.5483 C3.64158707,13.0138456 5.17598445,9.79151154 6.87043316,7.88129768 C8.56488188,5.97108382 12.2901489,3.76389412 18.0462342,1.2597286 L32.0042,39.8655 L9.8573,39.8655 Z" fill="#FFFFFF" fill-rule="nonzero"></path>
<path d="M36.9009726,28.2187599 C36.8861233,28.3256642 36.8716278,28.4295149 36.8564743,28.5374638 C36.6245571,30.0272542 36.001716,33.7625023 35.1924287,38.5550891 C34.8098021,40.8208061 33.125011,42.5796519 30.9132909,42.9207406 C27.942804,43.378756 24.4494301,43.6575 20.4768,43.6575 C16.1730185,43.6575 12.4866751,43.3322463 9.4630977,42.8140202 C7.67604491,42.5077195 6.31476869,41.0930715 5.9762878,39.2697868 C5.4111008,36.2251538 4.96897678,33.7883216 4.76667252,32.5569334 C4.62040337,31.3868747 5.43976002,30.279578 6.62575997,30.1400896 C7.77344967,29.9966535 8.81350036,30.7861598 9.03302332,31.9415957 L10.3221772,38.233508 C10.3741197,38.4451154 10.4183943,38.4679606 11.1360315,38.5731236 C11.7492981,38.6629814 11.7589821,38.6533871 11.7272779,38.2822687 L11.3657965,34.3634804 C11.2949058,33.1594056 12.1685351,32.1547531 13.3684724,32.0842633 C14.5393069,32.0110172 15.5805551,32.8971869 15.6494622,34.0731789 L16.0311371,38.7963842 C16.0459747,39.0188293 16.1417608,39.0631958 16.8768512,39.095239 C16.9310994,39.0975559 16.9310994,39.0975559 16.9865235,39.0998255 C17.1127984,39.1049908 17.1711239,39.1075713 17.2439828,39.1115096 C17.7867612,39.1410681 18.0494097,39.1308525 18.2191798,39.0686844 C18.3150815,39.0335661 18.333,39.006781 18.333,38.7798 L18.333,34.4766 C18.333,33.2725894 19.2727835,32.3329 20.4768,32.3329 C21.68074,32.3329 22.6205,33.2726129 22.6205,34.4766 L22.6205,38.7798 C22.6205,38.956245 22.7946587,39.1319369 22.9023731,39.1325105 C23.1655671,39.1339048 23.8326646,39.1072338 24.7423018,39.061638 C25.4398652,39.0267178 26.0194032,38.5837049 26.1903191,37.9569912 C26.7866815,35.7699808 27.2476754,32.8778124 27.4020278,30.6387384 C27.3631056,30.6412149 27.3240869,30.6436491 27.2849702,30.6460413 C25.568567,30.7510113 24.16132,30.7688222 21.2980947,30.7564492 C21.2800168,30.7563711 21.2800168,30.7563711 21.2619724,30.7562931 C20.5822074,30.7533677 20.3205641,30.7525 19.9768,30.7525 C19.6198953,30.7525 19.3102736,30.7535807 18.6667,30.7566 L18.6699139,30.7565922 C18.6560342,30.7566554 18.6560342,30.7566554 18.642146,30.7567186 C16.2347696,30.7676723 15.0815601,30.7578244 13.6672087,30.6922435 C4.73164328,30.2779181 -0.1327207,27.4789656 -0.25,20.1744 L-0.25,20.0814 C-0.25,20.07295 -0.25,20.07295 -0.25,20.0644 C-0.25,20.06005 -0.25,20.06005 -0.25,20.0557 C-0.25,19.6616072 -0.24900094,19.4793867 -0.244034827,19.2504593 C-0.237261228,18.9382106 -0.223702175,18.6638331 -0.201330803,18.4185768 C0.0904141756,14.6259444 1.4084263,10.9703042 3.62244589,7.89062215 C3.67779715,7.81876434 3.73707162,7.7504306 3.79993372,7.68596858 C4.43545558,6.87679451 5.33772269,5.8864537 6.11168138,5.13980957 C8.81076705,2.53599119 12.101206,0.745282748 15.7023319,-0.099939542 C17.0184588,-0.41874848 18.354445,-0.601238465 19.7080948,-0.644899595 C19.9726152,-0.653864986 20.2372298,-0.658049248 20.4983579,-0.65747033 C20.7627573,-0.65804922 21.0273689,-0.653865413 21.2907806,-0.644940098 C22.6456233,-0.601236159 23.9817149,-0.418731781 25.2924768,-0.101177517 C28.8988272,0.745276431 32.1891848,2.53595504 34.8883187,5.13980963 C38.9882032,9.09498502 41.25,14.4019813 41.25,20.0814 L41.25,20.1744 L41.2498806,20.1877805 C41.1840752,23.8756888 39.6657075,26.5187252 36.9009726,28.2187599 Z M11.9087842,24.5631599 C18.4747703,24.3266871 21.5218467,22.7340277 22.0618329,19.9890092 C22.5022625,17.7500867 21.535512,14.9686233 18.9629283,10.0393793 C18.8033196,9.73355832 18.6412064,9.42525465 18.4135578,8.99396684 C18.337341,8.8495981 18.337341,8.8495981 18.2611377,8.70530801 C17.8034148,7.83880039 17.5874333,7.42767485 17.333757,6.93697286 C16.8924403,6.0832761 16.7337033,5.01159563 16.8506406,3.99918342 C15.4256661,4.32334432 14.0441331,4.82546325 12.8424309,5.46465457 C11.4882193,6.1805838 10.2319409,7.08932274 9.10270198,8.17212535 C8.28932244,8.9521127 7.5503732,9.79856509 6.9072291,10.6857147 C5.24543306,13.0711035 4.24904119,15.8595079 4.0337397,18.7413097 C4.00459182,19.0328599 4.00633158,19.2803064 4.03016531,19.8231377 C4.03357566,19.9007447 4.03357566,19.9007447 4.0368339,19.9785608 C4.16231193,23.0475047 6.37929992,24.5834 10.2006903,24.5834529 L11.9087842,24.5631599 Z M14.9019,14.5817 C13.4613864,14.5817 12.2936,13.4139136 12.2936,11.9734 C12.2936,10.5328147 13.4613581,9.3651 14.9019,9.3651 C16.3424419,9.3651 17.5102,10.5328147 17.5102,11.9734 C17.5102,13.4139136 16.3424136,14.5817 14.9019,14.5817 Z M8.0041,20.1566 C6.56354729,20.1566 5.39575,18.9888244 5.39575,17.5483 C5.39575,16.1077756 6.56354729,14.94 8.0041,14.94 C9.44461356,14.94 10.6124,16.1077864 10.6124,17.5483 C10.6124,18.9888136 9.44461356,20.1566 8.0041,20.1566 Z" stroke="#FFFFFF" stroke-width="1.5" fill="#000000"></path>
</g>
</svg>
