<svg width="308" height="79" viewBox="0 0 308 79" fill="black" xmlns="http://www.w3.org/2000/svg">
<path d="M122.051 45.5595L138.115 21.5605C139.022 20.2713 140.192 19.6267 141.624 19.6267C142.77 19.6267 143.797 20.0326 144.704 20.8443C145.611 21.656 146.065 22.7065 146.065 23.9957V65.4646C146.065 66.706 145.659 67.7445 144.847 68.5801C144.036 69.4157 142.961 69.8335 141.624 69.8335C140.287 69.8335 139.201 69.4157 138.366 68.5801C137.53 67.7445 137.112 66.706 137.112 65.4646V36.6337L125.295 54.6497C124.865 55.1749 124.328 55.6285 123.683 56.0105C123.039 56.3925 122.382 56.5596 121.714 56.5119C121.093 56.5596 120.46 56.3925 119.816 56.0105C119.171 55.6285 118.634 55.1749 118.204 54.6497L106.386 35.9643V65.4646C106.386 66.706 106.005 67.7445 105.241 68.5801C104.477 69.4157 103.474 69.8335 102.232 69.8335C101.039 69.8335 100.06 69.4157 99.2959 68.5801C98.532 67.7445 98.15 66.706 98.15 65.4646V23.9957C98.15 22.802 98.5917 21.7754 99.475 20.9159C100.358 20.0565 101.421 19.6267 102.662 19.6267C103.331 19.6267 104.035 19.8058 104.775 20.1639C105.515 20.522 106.076 20.9875 106.458 21.5605L122.051 45.5595Z" />
<path d="M182.998 30.7997C184.24 30.7997 185.266 31.2175 186.078 32.0531C186.89 32.8887 187.295 33.9272 187.295 35.1686V53.3605C187.295 58.4218 185.887 62.4326 183.07 65.393C180.253 68.3533 176.194 69.8335 170.894 69.8335C165.594 69.8335 161.547 68.3533 158.754 65.393C155.961 62.4326 154.564 58.4218 154.564 53.3605V35.1686C154.564 33.9272 154.97 32.8887 155.782 32.0531C156.594 31.2175 157.62 30.7997 158.862 30.7997C160.103 30.7997 161.13 31.2175 161.941 32.0531C162.753 32.8887 163.159 33.9272 163.159 35.1686V53.3605C163.159 56.2732 163.803 58.4337 165.093 59.8423C166.382 61.2508 168.316 61.9551 170.894 61.9551C173.52 61.9551 175.478 61.2508 176.767 59.8423C178.056 58.4337 178.701 56.2732 178.701 53.3605V35.1686C178.701 33.9272 179.107 32.8887 179.918 32.0531C180.73 31.2175 181.757 30.7997 182.998 30.7997Z" />
<path d="M214.057 16.8335C215.108 16.8335 216.134 16.9767 217.137 17.2632C218.14 17.5497 218.975 18.0152 219.644 18.6598C220.312 19.3044 220.647 20.1519 220.647 21.2024C220.647 22.3961 220.3 23.3391 219.608 24.0315C218.916 24.7238 218.116 25.07 217.209 25.07C216.779 25.07 216.134 24.9625 215.275 24.7477C214.415 24.5328 213.58 24.4254 212.768 24.4254C211.574 24.4254 210.655 24.688 210.011 25.2132C209.366 25.7384 208.924 26.3472 208.686 27.0396C208.447 27.7319 208.328 28.3407 208.328 28.8659V65.4646C208.328 66.706 207.922 67.7445 207.11 68.5801C206.298 69.4157 205.272 69.8335 204.03 69.8335C202.789 69.8335 201.762 69.4157 200.951 68.5801C200.139 67.7445 199.733 66.706 199.733 65.4646V28.9375C199.733 25.5474 200.927 22.6826 203.314 20.3429C205.701 18.0033 209.283 16.8335 214.057 16.8335Z" />
<path d="M214.845 32.2321C215.991 32.2321 216.946 32.6022 217.71 33.3423C218.474 34.0823 218.856 35.0254 218.856 36.1713C218.856 37.3173 218.474 38.2603 217.71 39.0004C216.946 39.7405 215.991 40.1105 214.845 40.1105H195.865C194.719 40.1105 193.765 39.7405 193.001 39.0004C192.237 38.2603 191.855 37.3173 191.855 36.1713C191.855 35.0254 192.237 34.0823 193.001 33.3423C193.765 32.6022 194.719 32.2321 195.865 32.2321H214.845Z" />
<path d="M243.828 16.8335C244.878 16.8335 245.905 16.9767 246.908 17.2632C247.91 17.5497 248.746 18.0152 249.414 18.6598C250.083 19.3044 250.417 20.1519 250.417 21.2024C250.417 22.3961 250.071 23.3391 249.379 24.0315C248.686 24.7238 247.886 25.07 246.979 25.07C246.55 25.07 245.905 24.9625 245.045 24.7477C244.186 24.5328 243.35 24.4254 242.539 24.4254C241.345 24.4254 240.426 24.688 239.781 25.2132C239.137 25.7384 238.695 26.3472 238.456 27.0396C238.218 27.7319 238.098 28.3407 238.098 28.8659V65.4646C238.098 66.706 237.692 67.7445 236.881 68.5801C236.069 69.4157 235.042 69.8335 233.801 69.8335C232.559 69.8335 231.533 69.4157 230.721 68.5801C229.909 67.7445 229.504 66.706 229.504 65.4646V28.9375C229.504 25.5474 230.697 22.6826 233.085 20.3429C235.472 18.0033 239.053 16.8335 243.828 16.8335Z" />
<path d="M244.616 32.2321C245.762 32.2321 246.717 32.6022 247.481 33.3423C248.245 34.0823 248.627 35.0254 248.627 36.1713C248.627 37.3173 248.245 38.2603 247.481 39.0004C246.717 39.7405 245.762 40.1105 244.616 40.1105H225.636C224.49 40.1105 223.535 39.7405 222.771 39.0004C222.007 38.2603 221.625 37.3173 221.625 36.1713C221.625 35.0254 222.007 34.0823 222.771 33.3423C223.535 32.6022 224.49 32.2321 225.636 32.2321H244.616Z" />
<path d="M263.786 65.4646C263.786 66.706 263.38 67.7445 262.568 68.5801C261.757 69.4157 260.73 69.8335 259.489 69.8335C258.247 69.8335 257.221 69.4157 256.409 68.5801C255.597 67.7445 255.191 66.706 255.191 65.4646V35.8848C255.191 34.6434 255.597 33.6049 256.409 32.7693C257.221 31.9337 258.247 31.5159 259.489 31.5159C260.73 31.5159 261.757 31.9337 262.568 32.7693C263.38 33.6049 263.786 34.6434 263.786 35.8848V65.4646Z" />
<path d="M259.417 26.8605C257.793 26.8605 256.648 26.5979 255.979 26.0727C255.311 25.5475 254.976 24.6164 254.976 23.2794V21.9186C254.976 20.5339 255.346 19.5909 256.086 19.0896C256.827 18.5882 257.961 18.3376 259.489 18.3376C261.16 18.3376 262.329 18.6002 262.998 19.1254C263.666 19.6506 264.001 20.5817 264.001 21.9186V23.2794C264.001 24.6641 263.643 25.6071 262.926 26.1085C262.21 26.6099 261.04 26.8605 259.417 26.8605Z" />
<path d="M280.731 37.0987C280.97 36.7851 281.233 36.464 281.519 36.1355C282.331 35.2044 283.286 34.3331 284.384 33.5213C285.482 32.7096 286.724 32.0531 288.108 31.5517C289.493 31.0504 290.997 30.7997 292.62 30.7997C296.154 30.7997 298.84 31.5398 300.678 33.02C302.516 34.5002 303.781 36.4697 304.474 38.9288C305.166 41.3878 305.512 44.1213 305.512 47.1294V65.4646C305.512 66.706 305.107 67.7445 304.295 68.5801C303.483 69.4157 302.457 69.8335 301.215 69.8335C299.974 69.8335 298.947 69.4157 298.135 68.5801C297.324 67.7445 296.918 66.706 296.918 65.4646V47.1294C296.918 45.5538 296.715 44.1333 296.309 42.868C295.903 41.6026 295.175 40.588 294.125 39.824C293.074 39.0601 291.57 38.6781 289.612 38.6781C287.702 38.6781 286.091 39.0601 284.778 39.824C283.465 40.588 282.462 41.6026 281.77 42.868C281.077 44.1333 280.731 45.5538 280.731 47.1294V65.4646C280.731 66.706 280.325 67.7445 279.514 68.5801C278.702 69.4157 277.675 69.8335 276.434 69.8335C275.193 69.8335 274.166 69.4157 273.354 68.5801C272.543 67.7445 272.137 66.706 272.137 65.4646V35.8848C272.137 34.6434 272.543 33.6049 273.354 32.7693C274.166 31.9337 275.193 31.5159 276.434 31.5159C277.675 31.5159 278.702 31.9337 279.514 32.7693C280.325 33.6049 280.731 34.6434 280.731 35.8848V37.0987Z" />
<path fill-rule="evenodd" clip-rule="evenodd" d="M72 37.1432V36.9806C72 27.3871 68.1789 18.444 61.2683 11.7773C56.6767 7.34777 51.1159 4.35388 45.0869 2.93878C42.8892 2.40641 40.6407 2.09542 38.3414 2.02125C37.8932 2.00605 37.446 1.99902 37 2.00011C36.554 1.99902 36.1068 2.00605 35.6586 2.02125C33.3593 2.09542 31.1108 2.40641 28.9131 2.93878C22.8841 4.35388 17.3233 7.34776 12.7317 11.7773C11.4588 13.0053 9.87888 14.7263 8.75997 16.1593C8.66907 16.2482 8.58347 16.3444 8.50407 16.4477C4.76423 21.6509 2.56911 27.8298 2.08131 34.1712C2 35.0655 2 36.0412 2 36.9355C2 36.9406 2 36.9457 2 36.9508C2 36.9607 2 36.9707 2 36.9806V37.1432C2.2788 54.493 20.3355 54.4108 33.7913 54.3495H33.7917C34.5729 54.346 35.3386 54.3425 36.0844 54.3425C36.8133 54.3425 37.5664 54.3457 38.3391 54.3491C41.9813 54.3649 46.0576 54.3825 50.082 54.0692C50.3126 54.3746 50.4376 54.7596 50.4123 55.1719C50.1899 58.7917 49.4218 64.2165 48.2243 68.6081C47.7648 70.2932 46.234 71.4194 44.4896 71.5068C43.1629 71.5733 41.7587 71.6354 41.1973 71.6325C40.3427 71.628 39.3984 70.7902 39.3984 69.7027V62.1721C39.3984 60.79 38.3414 59.7331 36.9593 59.7331C35.5772 59.7331 34.5203 60.79 34.5203 62.1721V69.7027C34.5203 71.7311 32.7891 71.6787 31.2306 71.5938C31.0882 71.586 30.9434 71.5801 30.7979 71.5741C29.4216 71.5178 27.9792 71.4588 27.8699 69.8191L27.2034 61.5718C27.1221 60.1897 25.9026 59.2141 24.6018 59.2954C23.2197 59.3767 22.244 60.5149 22.3254 61.897L22.9546 68.7113C23.0587 69.9295 22.6049 70.9594 20.4228 70.6396C19.0721 70.4417 18.215 70.285 17.9141 69.0596L15.6471 57.9994C15.3848 56.6192 14.1837 55.723 12.8829 55.8856C11.5007 56.0482 10.6064 57.349 10.769 58.6498C11.1757 61.1183 12.1641 66.4969 12.874 70.3205C13.3589 72.9328 15.2883 75.0201 17.9071 75.4689C21.7809 76.1328 28.2354 76.9262 36.9593 76.9262C44.8917 76.9262 51.0145 76.2702 55.0232 75.6521C58.3832 75.1341 60.8514 72.4431 61.4175 69.0909C62.3911 63.3258 63.8446 54.6749 64.3269 51.5767C64.3851 51.1603 64.4388 50.7733 64.4883 50.414C68.8945 47.9054 71.8809 43.8123 72 37.1432ZM21.9968 46.1358C49.3973 45.1546 41.6048 30.3997 34.2425 16.4594L34.2425 16.4593L34.2424 16.4592C33.6961 15.4247 33.1521 14.3946 32.625 13.375C31.6741 11.5355 31.6455 9.02476 32.3516 7.16431C29.0911 7.68442 25.7989 8.74458 22.9858 10.2409C20.5174 11.5459 18.2179 13.2055 16.1463 15.192C14.6714 16.6063 13.3256 18.1461 12.1357 19.7878C9.09491 24.1527 7.26967 29.2572 6.87805 34.5049C6.80656 35.2197 6.83768 35.9286 6.86656 36.5863C6.87052 36.6766 6.87444 36.7659 6.87805 36.8542C7.15025 43.5116 12.3252 46.1715 18.9919 46.1715L21.9968 46.1358ZM27.2033 26.0435C28.9993 26.0435 30.4553 24.5875 30.4553 22.7914C30.4553 20.9954 28.9993 19.5394 27.2033 19.5394C25.4072 19.5394 23.9513 20.9954 23.9513 22.7914C23.9513 24.5875 25.4072 26.0435 27.2033 26.0435ZM15.1321 35.7996C16.9281 35.7996 18.3841 34.3436 18.3841 32.5476C18.3841 30.7516 16.9281 29.2956 15.1321 29.2956C13.3361 29.2956 11.8801 30.7516 11.8801 32.5476C11.8801 34.3436 13.3361 35.7996 15.1321 35.7996Z" />
</svg>
