<svg width="45" height="45" viewBox="0 0 45 45" fill="black" xmlns="http://www.w3.org/2000/svg">
<path fill-rule="evenodd" clip-rule="evenodd" d="M42.5 21.1744V21.0814C42.5 15.5994 40.3165 10.4891 36.3676 6.67958C33.7438 4.1484 30.5663 2.43761 27.1211 1.62898C25.8653 1.32476 24.5804 1.14705 23.2666 1.10467C23.0104 1.09599 22.7548 1.09197 22.5 1.09259C22.2452 1.09197 21.9896 1.09599 21.7335 1.10467C20.4196 1.14705 19.1348 1.32476 17.8789 1.62898C14.4338 2.4376 11.2562 4.14839 8.6324 6.67958C7.90504 7.38127 7.00222 8.36468 6.36284 9.18357C6.3109 9.23436 6.26198 9.28936 6.21661 9.34834C4.07956 12.3216 2.82521 15.8524 2.54646 19.4761C2.5 19.9871 2.5 20.5446 2.5 21.0557C2.5 21.0586 2.5 21.0615 2.5 21.0644C2.5 21.0701 2.5 21.0758 2.5 21.0814V21.1744C2.65931 31.0886 12.9774 31.0416 20.6665 31.0066H20.6667C21.1131 31.0045 21.5506 31.0025 21.9768 31.0025C22.3933 31.0025 22.8237 31.0044 23.2652 31.0063C25.3465 31.0153 27.6758 31.0254 29.9755 30.8464C30.1072 31.0209 30.1787 31.2409 30.1642 31.4765C30.0371 33.545 29.5982 36.6448 28.9139 39.1543C28.6513 40.1172 27.7766 40.7608 26.7798 40.8107C26.0217 40.8487 25.2193 40.8842 24.8984 40.8825C24.4102 40.8799 23.8705 40.4012 23.8705 39.7798V35.4766C23.8705 34.6868 23.2665 34.0829 22.4768 34.0829C21.687 34.0829 21.083 34.6868 21.083 35.4766V39.7798C21.083 40.9389 20.0938 40.9089 19.2032 40.8604C19.1218 40.856 19.0391 40.8526 18.9559 40.8492C18.1695 40.817 17.3453 40.7833 17.2828 39.8463L16.9019 35.1336C16.8555 34.3438 16.1586 33.7863 15.4153 33.8328C14.6255 33.8792 14.068 34.5296 14.1145 35.3194L14.4741 39.2133C14.5336 39.9094 14.2742 40.4979 13.0273 40.3152C12.2555 40.2021 11.7657 40.1126 11.5938 39.4123L10.2983 33.0922C10.1484 32.3035 9.4621 31.7914 8.71877 31.8843C7.929 31.9772 7.41796 32.7206 7.51088 33.4639C7.74327 34.8744 8.30808 37.9479 8.71369 40.1329C8.9908 41.6256 10.0933 42.8183 11.5898 43.0748C13.8034 43.4542 17.4916 43.9075 22.4768 43.9075C27.0096 43.9075 30.5083 43.5327 32.799 43.1795C34.719 42.8834 36.1294 41.3458 36.4529 39.4302C37.0092 36.1358 37.8398 31.1925 38.1154 29.4221C38.1487 29.1842 38.1793 28.963 38.2076 28.7577C40.7254 27.3242 42.432 24.9853 42.5 21.1744ZM13.9267 26.313C29.5842 25.7523 25.1313 17.3209 20.9243 9.35503L20.9243 9.35499L20.9243 9.35495C20.612 8.76379 20.3012 8.17519 20 7.59256C19.4566 6.54139 19.4403 5.10668 19.8438 4.04356C17.9806 4.34077 16.0994 4.94657 14.4919 5.80161C13.0813 6.54735 11.7674 7.49568 10.5836 8.6308C9.74081 9.43898 8.97175 10.3189 8.29184 11.257C6.55424 13.7512 5.51124 16.6681 5.28746 19.6667C5.24661 20.0753 5.26439 20.4803 5.28089 20.8561C5.28316 20.9077 5.2854 20.9588 5.28746 21.0092C5.443 24.8134 8.40012 26.3334 12.2096 26.3334L13.9267 26.313ZM16.9019 14.8317C17.9282 14.8317 18.7602 13.9997 18.7602 12.9734C18.7602 11.947 17.9282 11.1151 16.9019 11.1151C15.8756 11.1151 15.0436 11.947 15.0436 12.9734C15.0436 13.9997 15.8756 14.8317 16.9019 14.8317ZM10.0041 20.4066C11.0304 20.4066 11.8624 19.5746 11.8624 18.5483C11.8624 17.522 11.0304 16.69 10.0041 16.69C8.97775 16.69 8.14575 17.522 8.14575 18.5483C8.14575 19.5746 8.97775 20.4066 10.0041 20.4066Z"/>
</svg>
