<svg width="300" height="80" viewBox="0 0 300 80" fill="black" xmlns="http://www.w3.org/2000/svg">
<path d="M26.3 20.6c0 2-1.6 3.6-3.6 3.6S19 22.6 19 20.6s1.6-3.6 3.6-3.6 3.6 1.6 3.6 3.6zm-11.7 15c2 0 3.6-1.6 3.6-3.6s-1.6-3.6-3.6-3.6S11 30 11 32s1.6 3.6 3.6 3.6z"/>
<path fill-rule="evenodd" d="M62.5 51.7a18 18 0 0 0 9.5-15C72 18 56 0 36 0 17.2 0 0 18 0 36.5c0 6.5 4 12 9.5 15.2 0 .3 0 .6 0 1L12.2 76c.2 1.8 1.8 3.2 3.6 3.2h40.4c1.8 0 3.4-1.4 3.6-3.2l2.8-23.4c0-.3 0-.6 0-1zm-34.2-3H18c-6.3 0-12.6-5.8-12.6-12C5.4 29 9 21 14.8 15S28.3 5.4 36 5.4h0c-2.7 1.2-5.2 5.3-4 8 .8 2 2.2 4.5 3.8 7.2 6.6 11.5 15.7 27.4-7.4 27.8zm26.3 25.6H39v-9.5c0-1.5-1.3-2.7-3-2.7s-3 1.2-3 2.7v9.5h-5.6l-.7-9.7c-.1-1.5-1.4-2.6-3-2.5s-2.6 1.4-2.5 3l.7 9.3h-5L15 54.4h42l-2.4 19.8z"/>
<path d="M100.5 20.8c.7 0 1.4.2 2 .6.8.3 1.3.8 1.7 1.4l17.3 26.7-3.6-.1L135.7 23c1-1.3 2-2 3.5-2 1 0 2.2.4 3 1.2a4 4 0 0 1 1.4 3.1v41.3c0 1.2-.4 2.3-1.2 3-.8.8-2 1.2-3.2 1.2s-2.4-.4-3.3-1.2c-.8-1-1.2-2-1.2-3V32.8l2.8.6L123 55.7c-.4.5-1 1-1.6 1.4s-1.3.5-2 .5c-.6 0-1.3-.1-2-.5-.6-.4-1-.8-1.6-1.4L102.4 34l2-3.8v36c0 1.2-.4 2.3-1 3-.8.8-1.8 1.2-3 1.2s-2.2-.4-3-1.2c-.8-1-1-2-1-3V25c0-1.2.4-2.2 1.3-3 1-1 2-1.3 3.2-1.3zM177.3 32c1.2 0 2.3.4 3 1.3.8.8 1.2 1.8 1.2 3v18c0 5-1.4 9-4.2 12s-6.8 4.4-12 4.4-9.3-1.5-12-4.4c-2.8-3-4-7-4-12v-18c0-1.2.4-2.3 1.2-3 .8-1 1.8-1.3 3-1.3s2.3.4 3 1.3c.8.8 1.2 1.8 1.2 3v18c0 3 .6 5 2 6.5 1.3 1.4 3.2 2 5.8 2s4.6-.7 6-2c1.3-1.4 2-3.6 2-6.5v-18c0-1.2.4-2.3 1.2-3 .8-1 1.8-1.3 3-1.3zm32-14c1 0 2 .1 3 .4s1.8.8 2.5 1.4 1 1.5 1 2.5c0 1.2-.4 2-1 3-.7.7-1.5 1-2.4 1-.4 0-1-.1-2-.3s-1.7-.4-2.5-.4c-1.2 0-2 .3-2.8.8-.6.5-1 1-1.3 2-.2.7-.4 1.3-.4 1.8v36.5c0 1.2-.4 2.3-1.2 3-.8.8-1.8 1.2-3 1.2s-2.3-.4-3-1.2c-.8-1-1.2-2-1.2-3V30c0-3.4 1.2-6.2 3.6-8.6s6-3.5 10.7-3.5zm.8 15.3c1 0 2 .4 3 1 .8.7 1 1.6 1 2.8s-.4 2-1 3a4 4 0 0 1-2.9 1.1h-19a4 4 0 0 1-2.9-1.1c-.8-.8-1-1.7-1-3s.4-2 1-2.8c.8-.8 1.7-1 3-1h19zM240.5 18c1 0 2 .1 3 .4s1.8.8 2.5 1.4 1 1.5 1 2.5c0 1.2-.4 2-1 3-.7.7-1.5 1-2.4 1-.4 0-1-.1-2-.3s-1.7-.4-2.5-.4c-1.2 0-2 .3-2.8.8-.6.5-1 1-1.3 2-.2.7-.4 1.3-.4 1.8v36.5c0 1.2-.4 2.3-1.2 3-.8.8-1.8 1.2-3 1.2s-2.3-.4-3-1.2c-.8-1-1.2-2-1.2-3V30c0-3.4 1.2-6.2 3.6-8.6s6-3.5 10.7-3.5zm.8 15.3c1 0 2 .4 3 1 .8.7 1 1.6 1 2.8s-.4 2-1 3a4 4 0 0 1-2.9 1.1h-19a4 4 0 0 1-2.9-1.1c-.8-.8-1-1.7-1-3s.4-2 1-2.8c.8-.8 1.7-1 3-1h19zm18.8 33c0 1.2-.4 2.3-1.2 3-.8.8-1.8 1.2-3 1.2s-2.3-.4-3-1.2c-.8-1-1.2-2-1.2-3V37c0-1.2.4-2.3 1.2-3 .8-1 1.8-1.3 3-1.3s2.3.4 3 1.3c.8.8 1.2 1.8 1.2 3v29.5zM255.8 28c-1.6 0-2.8-.3-3.4-.8s-1-1.5-1-2.8V23c0-1.4.4-2.3 1-2.8.8-.5 2-.8 3.4-.8 1.7 0 2.8.3 3.5.8s1 1.5 1 2.8v1.4c0 1.4-.4 2.3-1 3-.7.5-2 .7-3.5.7zm31 4c3.5 0 6.2.7 8 2.2a11 11 0 0 1 3.8 5.9c.7 2.4 1 5 1 8v18.3c0 1.2-.4 2.3-1.2 3-.8.8-1.8 1.2-3 1.2s-2.3-.4-3-1.2c-.8-1-1.2-2-1.2-3V48.2c0-1.6-.2-3-.6-4.2-.4-1.3-1-2.3-2-3s-2.5-1-4.5-1-3.5.4-5 1c-1.3.8-2.3 1.8-3 3s-1 2.6-1 4.2v18.3c0 1.2-.4 2.3-1.2 3-.8.8-1.8 1.2-3 1.2s-2.3-.4-3-1.2c-.8-1-1.2-2-1.2-3V37c0-1.2.4-2.3 1.2-3 .8-1 1.8-1.3 3-1.3s2.3.4 3 1.3c.8.8 1.2 1.8 1.2 3v3l-1-.2c.4-.8 1-1.7 2-2.6a17 17 0 0 1 2.9-2.6 13 13 0 0 1 3.7-2c1.4-.5 3-.8 4.5-.8z"/>
</svg>
