<svg width="45" height="50" viewBox="0 0 45 50" fill="black" xmlns="http://www.w3.org/2000/svg">
<path d="M16.5729 13.0691C16.5729 14.2812 15.584 15.2638 14.3641 15.2638C13.1442 15.2638 12.1553 14.2812 12.1553 13.0691C12.1553 11.8571 13.1442 10.8745 14.3641 10.8745C15.584 10.8745 16.5729 11.8571 16.5729 13.0691Z" />
<path d="M9.41958 22.2487C10.6314 22.2487 11.6137 21.2595 11.6137 20.0393C11.6137 18.8191 10.6314 17.8299 9.41958 17.8299C8.20781 17.8299 7.22547 18.8191 7.22547 20.0393C7.22547 21.2595 8.20781 22.2487 9.41958 22.2487Z" />
<path fill-rule="evenodd" clip-rule="evenodd" d="M38.7062 32.0822C41.9765 30.2508 44.4314 26.8241 44.5 22.9238C44.5 11.4977 34.7669 0.475922 22.5 0.50004C10.9912 0.522667 0.5 11.4505 0.5 22.8201C0.5 26.7644 2.99016 30.233 6.29491 32.0803C6.26847 32.2651 6.26526 32.4567 6.28821 32.6518L7.97095 46.9564C8.10133 48.0647 9.04054 48.9 10.1564 48.9H34.8159C35.9301 48.9 36.8685 48.0671 37.0009 46.9607L38.7121 32.6561C38.7356 32.4602 38.7326 32.2678 38.7062 32.0822ZM17.8087 30.1946H11.5C7.62257 30.1946 3.8 26.6669 3.8 22.8207C3.8 18.1367 5.98089 13.358 9.54458 9.71134C13.106 6.06699 17.7957 3.80929 22.5065 3.80003L22.508 3.80003C20.8823 4.54628 19.324 7.02671 20.0302 8.77325C20.5261 9.98143 21.3998 11.5089 22.3611 13.1898C26.3823 20.2203 31.9385 29.9345 17.8087 30.1946ZM33.8685 45.825H24.3769V39.998C24.3769 39.0868 23.5889 38.3481 22.6169 38.3481C21.6449 38.3481 20.8569 39.0868 20.8569 39.998V45.825H17.4645L17.0063 39.8685C16.9361 38.957 16.1403 38.275 15.2286 38.3451C14.317 38.4152 13.6348 39.211 13.705 40.1225L14.1437 45.825H11.1639L9.74 33.7211H35.3165L33.8685 45.825Z" />
</svg>
